<mxfile host="Electron" agent="Mozilla/5.0 (Windows NT 10.0; Win64; x64) AppleWebKit/537.36 (KHTML, like Gecko) draw.io/26.0.16 Chrome/132.0.6834.196 Electron/34.2.0 Safari/537.36" version="26.0.16">
  <diagram name="philOS" id="DZwsLHPuahqcEZXRP3Ic">
    <mxGraphModel dx="3755" dy="1693" grid="1" gridSize="10" guides="1" tooltips="1" connect="1" arrows="1" fold="1" page="1" pageScale="1" pageWidth="827" pageHeight="1169" background="none" math="0" shadow="1">
      <root>
        <mxCell id="0" />
        <mxCell id="1" parent="0" />
        <mxCell id="h9ixGq4jD2DIpm4-JCJy-1" value="Utente" style="rounded=0;whiteSpace=wrap;html=1;fillColor=#d5e8d4;strokeColor=#82b366;" vertex="1" parent="1">
          <mxGeometry x="180" y="70" width="120" height="60" as="geometry" />
        </mxCell>
        <mxCell id="h9ixGq4jD2DIpm4-JCJy-7" style="edgeStyle=orthogonalEdgeStyle;rounded=0;orthogonalLoop=1;jettySize=auto;html=1;" edge="1" parent="1">
          <mxGeometry relative="1" as="geometry">
            <mxPoint x="400" y="280" as="targetPoint" />
            <mxPoint x="300" y="280" as="sourcePoint" />
          </mxGeometry>
        </mxCell>
        <mxCell id="h9ixGq4jD2DIpm4-JCJy-8" value="Comunicazione&lt;div&gt;seriale&lt;/div&gt;" style="edgeLabel;html=1;align=center;verticalAlign=middle;resizable=0;points=[];rotation=0;labelBackgroundColor=none;" vertex="1" connectable="0" parent="1">
          <mxGeometry x="350" y="280" as="geometry" />
        </mxCell>
        <mxCell id="h9ixGq4jD2DIpm4-JCJy-17" style="edgeStyle=orthogonalEdgeStyle;rounded=0;orthogonalLoop=1;jettySize=auto;html=1;" edge="1" parent="1" source="h9ixGq4jD2DIpm4-JCJy-13">
          <mxGeometry relative="1" as="geometry">
            <mxPoint x="640" y="280" as="targetPoint" />
          </mxGeometry>
        </mxCell>
        <mxCell id="h9ixGq4jD2DIpm4-JCJy-26" value="" style="edgeStyle=orthogonalEdgeStyle;rounded=0;orthogonalLoop=1;jettySize=auto;html=1;" edge="1" parent="1" source="h9ixGq4jD2DIpm4-JCJy-13">
          <mxGeometry relative="1" as="geometry">
            <mxPoint x="300" y="280.0000000000001" as="targetPoint" />
          </mxGeometry>
        </mxCell>
        <mxCell id="h9ixGq4jD2DIpm4-JCJy-13" value="Controller RS232" style="rounded=0;whiteSpace=wrap;html=1;fillColor=#dae8fc;strokeColor=#6c8ebf;" vertex="1" parent="1">
          <mxGeometry x="400" y="250" width="120" height="60" as="geometry" />
        </mxCell>
        <mxCell id="h9ixGq4jD2DIpm4-JCJy-16" style="edgeStyle=orthogonalEdgeStyle;rounded=0;orthogonalLoop=1;jettySize=auto;html=1;entryX=0;entryY=0.5;entryDx=0;entryDy=0;" edge="1" parent="1" source="h9ixGq4jD2DIpm4-JCJy-14" target="h9ixGq4jD2DIpm4-JCJy-15">
          <mxGeometry relative="1" as="geometry" />
        </mxCell>
        <mxCell id="h9ixGq4jD2DIpm4-JCJy-14" value="&lt;font style=&quot;font-size: 9px;&quot;&gt;&lt;font style=&quot;&quot;&gt;MAX2&lt;/font&gt;32&lt;/font&gt;" style="rounded=0;whiteSpace=wrap;html=1;fillColor=#dae8fc;strokeColor=#6c8ebf;" vertex="1" parent="1">
          <mxGeometry x="400" y="290" width="46" height="20" as="geometry" />
        </mxCell>
        <mxCell id="h9ixGq4jD2DIpm4-JCJy-15" value="&lt;font size=&quot;1&quot;&gt;USART&lt;/font&gt;" style="rounded=0;whiteSpace=wrap;html=1;fillColor=#dae8fc;strokeColor=#6c8ebf;" vertex="1" parent="1">
          <mxGeometry x="474" y="290" width="46" height="20" as="geometry" />
        </mxCell>
        <mxCell id="h9ixGq4jD2DIpm4-JCJy-20" value="Invia&lt;div&gt;segnale&lt;/div&gt;" style="edgeLabel;html=1;align=center;verticalAlign=middle;resizable=0;points=[];rotation=0;labelBackgroundColor=none;" vertex="1" connectable="0" parent="1">
          <mxGeometry x="580" y="280" as="geometry" />
        </mxCell>
        <mxCell id="h9ixGq4jD2DIpm4-JCJy-21" value="Controller interruzioni" style="rounded=0;whiteSpace=wrap;html=1;fillColor=#dae8fc;strokeColor=#6c8ebf;" vertex="1" parent="1">
          <mxGeometry x="640" y="250" width="120" height="60" as="geometry" />
        </mxCell>
        <mxCell id="h9ixGq4jD2DIpm4-JCJy-23" value="&lt;font size=&quot;1&quot;&gt;i8259&lt;/font&gt;" style="rounded=0;whiteSpace=wrap;html=1;fillColor=#dae8fc;strokeColor=#6c8ebf;" vertex="1" parent="1">
          <mxGeometry x="677" y="290" width="46" height="20" as="geometry" />
        </mxCell>
        <mxCell id="h9ixGq4jD2DIpm4-JCJy-28" value="Genera&lt;div&gt;Interruzione&lt;/div&gt;" style="edgeLabel;html=1;align=center;verticalAlign=middle;resizable=0;points=[];rotation=0;labelBackgroundColor=none;" vertex="1" connectable="0" parent="1">
          <mxGeometry x="580" y="340" as="geometry">
            <mxPoint x="-2.000000000000001" y="21" as="offset" />
          </mxGeometry>
        </mxCell>
        <mxCell id="h9ixGq4jD2DIpm4-JCJy-93" style="edgeStyle=orthogonalEdgeStyle;rounded=0;orthogonalLoop=1;jettySize=auto;html=1;entryX=0;entryY=0.5;entryDx=0;entryDy=0;dashed=1;" edge="1" parent="1">
          <mxGeometry relative="1" as="geometry">
            <mxPoint x="520" y="520" as="sourcePoint" />
            <mxPoint x="640" y="520" as="targetPoint" />
          </mxGeometry>
        </mxCell>
        <mxCell id="h9ixGq4jD2DIpm4-JCJy-108" style="edgeStyle=orthogonalEdgeStyle;rounded=0;orthogonalLoop=1;jettySize=auto;html=1;entryX=0.5;entryY=0;entryDx=0;entryDy=0;" edge="1" parent="1" source="h9ixGq4jD2DIpm4-JCJy-29" target="h9ixGq4jD2DIpm4-JCJy-13">
          <mxGeometry relative="1" as="geometry">
            <mxPoint x="460" y="170" as="targetPoint" />
            <Array as="points">
              <mxPoint x="150" y="1090" />
              <mxPoint x="1560" y="1090" />
              <mxPoint x="1560" y="190" />
              <mxPoint x="460" y="190" />
            </Array>
          </mxGeometry>
        </mxCell>
        <mxCell id="h9ixGq4jD2DIpm4-JCJy-29" value="Unità di elaborazione centrale (i8086)" style="rounded=0;whiteSpace=wrap;align=center;html=1;spacing=2;spacingTop=-150;fillColor=#dae8fc;strokeColor=#6c8ebf;" vertex="1" parent="1">
          <mxGeometry x="40" y="400" width="480" height="200" as="geometry" />
        </mxCell>
        <mxCell id="h9ixGq4jD2DIpm4-JCJy-51" style="edgeStyle=orthogonalEdgeStyle;rounded=0;orthogonalLoop=1;jettySize=auto;html=1;entryX=0.5;entryY=1;entryDx=0;entryDy=0;" edge="1" parent="1" source="h9ixGq4jD2DIpm4-JCJy-30" target="h9ixGq4jD2DIpm4-JCJy-34">
          <mxGeometry relative="1" as="geometry" />
        </mxCell>
        <mxCell id="h9ixGq4jD2DIpm4-JCJy-30" value="Memoria dati volatile" style="rounded=0;whiteSpace=wrap;align=center;html=1;spacing=2;spacingTop=-150;fillColor=#dae8fc;strokeColor=#6c8ebf;" vertex="1" parent="1">
          <mxGeometry x="530" y="840" width="230" height="200" as="geometry" />
        </mxCell>
        <mxCell id="h9ixGq4jD2DIpm4-JCJy-52" style="edgeStyle=orthogonalEdgeStyle;rounded=0;orthogonalLoop=1;jettySize=auto;html=1;entryX=0.5;entryY=1;entryDx=0;entryDy=0;" edge="1" parent="1" source="h9ixGq4jD2DIpm4-JCJy-31" target="h9ixGq4jD2DIpm4-JCJy-34">
          <mxGeometry relative="1" as="geometry" />
        </mxCell>
        <mxCell id="h9ixGq4jD2DIpm4-JCJy-31" value="Memoria di sola lettura" style="rounded=0;whiteSpace=wrap;align=center;html=1;spacing=2;spacingTop=-150;fillColor=#dae8fc;strokeColor=#6c8ebf;" vertex="1" parent="1">
          <mxGeometry x="280" y="840" width="230" height="200" as="geometry" />
        </mxCell>
        <mxCell id="h9ixGq4jD2DIpm4-JCJy-49" style="edgeStyle=orthogonalEdgeStyle;rounded=0;orthogonalLoop=1;jettySize=auto;html=1;entryX=0.5;entryY=0;entryDx=0;entryDy=0;" edge="1" parent="1" source="h9ixGq4jD2DIpm4-JCJy-34" target="h9ixGq4jD2DIpm4-JCJy-31">
          <mxGeometry relative="1" as="geometry" />
        </mxCell>
        <mxCell id="h9ixGq4jD2DIpm4-JCJy-54" style="edgeStyle=orthogonalEdgeStyle;rounded=0;orthogonalLoop=1;jettySize=auto;html=1;" edge="1" parent="1" source="h9ixGq4jD2DIpm4-JCJy-21" target="h9ixGq4jD2DIpm4-JCJy-36">
          <mxGeometry relative="1" as="geometry">
            <Array as="points">
              <mxPoint x="700" y="360" />
              <mxPoint x="435" y="360" />
            </Array>
          </mxGeometry>
        </mxCell>
        <mxCell id="h9ixGq4jD2DIpm4-JCJy-50" style="edgeStyle=orthogonalEdgeStyle;rounded=0;orthogonalLoop=1;jettySize=auto;html=1;" edge="1" parent="1" source="h9ixGq4jD2DIpm4-JCJy-34" target="h9ixGq4jD2DIpm4-JCJy-30">
          <mxGeometry relative="1" as="geometry" />
        </mxCell>
        <mxCell id="h9ixGq4jD2DIpm4-JCJy-53" style="edgeStyle=orthogonalEdgeStyle;rounded=0;orthogonalLoop=1;jettySize=auto;html=1;entryX=0.5;entryY=1;entryDx=0;entryDy=0;" edge="1" parent="1" source="h9ixGq4jD2DIpm4-JCJy-34" target="h9ixGq4jD2DIpm4-JCJy-37">
          <mxGeometry relative="1" as="geometry" />
        </mxCell>
        <mxCell id="h9ixGq4jD2DIpm4-JCJy-46" style="edgeStyle=orthogonalEdgeStyle;rounded=0;orthogonalLoop=1;jettySize=auto;html=1;" edge="1" parent="1" source="h9ixGq4jD2DIpm4-JCJy-35" target="h9ixGq4jD2DIpm4-JCJy-36">
          <mxGeometry relative="1" as="geometry" />
        </mxCell>
        <mxCell id="h9ixGq4jD2DIpm4-JCJy-48" style="edgeStyle=orthogonalEdgeStyle;rounded=0;orthogonalLoop=1;jettySize=auto;html=1;entryX=0;entryY=0.5;entryDx=0;entryDy=0;" edge="1" parent="1" source="h9ixGq4jD2DIpm4-JCJy-35" target="h9ixGq4jD2DIpm4-JCJy-37">
          <mxGeometry relative="1" as="geometry" />
        </mxCell>
        <mxCell id="h9ixGq4jD2DIpm4-JCJy-35" value="Unità logico-aritmetica" style="rounded=0;whiteSpace=wrap;html=1;fillColor=#dae8fc;strokeColor=#6c8ebf;" vertex="1" parent="1">
          <mxGeometry x="50" y="440" width="150" height="80" as="geometry" />
        </mxCell>
        <mxCell id="h9ixGq4jD2DIpm4-JCJy-47" style="edgeStyle=orthogonalEdgeStyle;rounded=0;orthogonalLoop=1;jettySize=auto;html=1;strokeWidth=5;startArrow=classic;startFill=1;" edge="1" parent="1" source="h9ixGq4jD2DIpm4-JCJy-36" target="h9ixGq4jD2DIpm4-JCJy-35">
          <mxGeometry relative="1" as="geometry" />
        </mxCell>
        <mxCell id="h9ixGq4jD2DIpm4-JCJy-36" value="Unità di decodificazione&lt;div&gt;istruzioni&lt;/div&gt;" style="rounded=0;whiteSpace=wrap;html=1;fillColor=#dae8fc;strokeColor=#6c8ebf;" vertex="1" parent="1">
          <mxGeometry x="360" y="440" width="150" height="80" as="geometry" />
        </mxCell>
        <mxCell id="h9ixGq4jD2DIpm4-JCJy-38" style="edgeStyle=orthogonalEdgeStyle;rounded=0;orthogonalLoop=1;jettySize=auto;html=1;entryX=0.5;entryY=0;entryDx=0;entryDy=0;" edge="1" parent="1" source="h9ixGq4jD2DIpm4-JCJy-37" target="h9ixGq4jD2DIpm4-JCJy-34">
          <mxGeometry relative="1" as="geometry" />
        </mxCell>
        <mxCell id="h9ixGq4jD2DIpm4-JCJy-37" value="Unità di interfaccia al bus" style="rounded=0;whiteSpace=wrap;html=1;fillColor=#dae8fc;strokeColor=#6c8ebf;" vertex="1" parent="1">
          <mxGeometry x="190" y="540" width="180" height="60" as="geometry" />
        </mxCell>
        <mxCell id="h9ixGq4jD2DIpm4-JCJy-61" style="edgeStyle=orthogonalEdgeStyle;rounded=0;orthogonalLoop=1;jettySize=auto;html=1;entryX=0;entryY=0.5;entryDx=0;entryDy=0;dashed=1;" edge="1" parent="1" source="h9ixGq4jD2DIpm4-JCJy-57" target="h9ixGq4jD2DIpm4-JCJy-59">
          <mxGeometry relative="1" as="geometry" />
        </mxCell>
        <mxCell id="h9ixGq4jD2DIpm4-JCJy-57" value="Kernel" style="rounded=0;whiteSpace=wrap;html=1;fillColor=#fff2cc;strokeColor=#d6b656;" vertex="1" parent="1">
          <mxGeometry x="640" y="460" width="150" height="80" as="geometry" />
        </mxCell>
        <mxCell id="h9ixGq4jD2DIpm4-JCJy-70" style="edgeStyle=orthogonalEdgeStyle;rounded=0;orthogonalLoop=1;jettySize=auto;html=1;entryX=0;entryY=0.5;entryDx=0;entryDy=0;dashed=1;" edge="1" parent="1" source="h9ixGq4jD2DIpm4-JCJy-59" target="h9ixGq4jD2DIpm4-JCJy-67">
          <mxGeometry relative="1" as="geometry" />
        </mxCell>
        <mxCell id="h9ixGq4jD2DIpm4-JCJy-71" value="Esecuzione&lt;div&gt;shell&lt;/div&gt;" style="edgeLabel;html=1;align=center;verticalAlign=middle;resizable=0;points=[];labelBackgroundColor=none;" vertex="1" connectable="0" parent="h9ixGq4jD2DIpm4-JCJy-70">
          <mxGeometry x="-0.037" y="2" relative="1" as="geometry">
            <mxPoint y="2" as="offset" />
          </mxGeometry>
        </mxCell>
        <mxCell id="h9ixGq4jD2DIpm4-JCJy-34" value="Unità di gestione memoria" style="rounded=0;whiteSpace=wrap;html=1;fillColor=#dae8fc;strokeColor=#6c8ebf;align=center;" vertex="1" parent="1">
          <mxGeometry x="360" y="640" width="320" height="160" as="geometry" />
        </mxCell>
        <mxCell id="h9ixGq4jD2DIpm4-JCJy-59" value="Gestione della memoria per&lt;div&gt;processo&lt;/div&gt;" style="ellipse;whiteSpace=wrap;html=1;aspect=fixed;fontSize=11;fillColor=#fff2cc;strokeColor=#d6b656;" vertex="1" parent="1">
          <mxGeometry x="900" y="460" width="80" height="80" as="geometry" />
        </mxCell>
        <mxCell id="h9ixGq4jD2DIpm4-JCJy-66" value="Identificata&lt;div&gt;mod. caricamento&lt;/div&gt;" style="edgeLabel;html=1;align=center;verticalAlign=middle;resizable=0;points=[];rotation=0;labelBackgroundColor=none;" vertex="1" connectable="0" parent="1">
          <mxGeometry x="840" y="500" as="geometry" />
        </mxCell>
        <mxCell id="h9ixGq4jD2DIpm4-JCJy-72" style="edgeStyle=orthogonalEdgeStyle;rounded=0;orthogonalLoop=1;jettySize=auto;html=1;dashed=1;" edge="1" parent="1" source="h9ixGq4jD2DIpm4-JCJy-67">
          <mxGeometry relative="1" as="geometry">
            <mxPoint x="1320" y="500" as="targetPoint" />
          </mxGeometry>
        </mxCell>
        <mxCell id="h9ixGq4jD2DIpm4-JCJy-67" value="Shell" style="rounded=0;whiteSpace=wrap;html=1;fillColor=#fff2cc;strokeColor=#d6b656;" vertex="1" parent="1">
          <mxGeometry x="1060" y="460" width="150" height="80" as="geometry" />
        </mxCell>
        <mxCell id="h9ixGq4jD2DIpm4-JCJy-109" value="Video&amp;nbsp;&lt;div&gt;&lt;span style=&quot;background-color: transparent; color: light-dark(rgb(0, 0, 0), rgb(255, 255, 255));&quot;&gt;terminale&lt;/span&gt;&lt;/div&gt;" style="rounded=0;whiteSpace=wrap;html=1;fillColor=#dae8fc;strokeColor=#6c8ebf;align=center;spacing=2;spacingRight=50;spacingTop=-25;" vertex="1" parent="1">
          <mxGeometry x="180" y="250" width="120" height="60" as="geometry" />
        </mxCell>
        <mxCell id="h9ixGq4jD2DIpm4-JCJy-73" value="Validità&lt;div&gt;comando&lt;/div&gt;" style="edgeLabel;html=1;align=center;verticalAlign=middle;resizable=0;points=[];labelBackgroundColor=none;" vertex="1" connectable="0" parent="1">
          <mxGeometry x="1260" y="510" as="geometry">
            <mxPoint x="-2" y="-12" as="offset" />
          </mxGeometry>
        </mxCell>
        <mxCell id="h9ixGq4jD2DIpm4-JCJy-76" style="edgeStyle=orthogonalEdgeStyle;rounded=0;orthogonalLoop=1;jettySize=auto;html=1;entryX=0.5;entryY=1;entryDx=0;entryDy=0;dashed=1;" edge="1" parent="1" target="h9ixGq4jD2DIpm4-JCJy-57">
          <mxGeometry relative="1" as="geometry">
            <mxPoint x="1360" y="550" as="sourcePoint" />
            <mxPoint x="715" y="550" as="targetPoint" />
            <Array as="points">
              <mxPoint x="1360" y="570" />
              <mxPoint x="715" y="570" />
            </Array>
          </mxGeometry>
        </mxCell>
        <mxCell id="h9ixGq4jD2DIpm4-JCJy-77" value="Richiesta&lt;div&gt;esecuzione programma&lt;/div&gt;" style="edgeLabel;html=1;align=center;verticalAlign=middle;resizable=0;points=[];fontColor=default;labelBackgroundColor=none;" vertex="1" connectable="0" parent="h9ixGq4jD2DIpm4-JCJy-76">
          <mxGeometry x="0.1012" y="-2" relative="1" as="geometry">
            <mxPoint x="42" y="2" as="offset" />
          </mxGeometry>
        </mxCell>
        <mxCell id="h9ixGq4jD2DIpm4-JCJy-74" value="Interpretazione&lt;div&gt;comando&lt;/div&gt;" style="ellipse;whiteSpace=wrap;html=1;aspect=fixed;fontSize=11;fillColor=#fff2cc;strokeColor=#d6b656;" vertex="1" parent="1">
          <mxGeometry x="1320" y="460" width="80" height="80" as="geometry" />
        </mxCell>
        <mxCell id="h9ixGq4jD2DIpm4-JCJy-81" style="edgeStyle=orthogonalEdgeStyle;rounded=0;orthogonalLoop=1;jettySize=auto;html=1;dashed=1;" edge="1" parent="1">
          <mxGeometry relative="1" as="geometry">
            <mxPoint x="640" y="480" as="sourcePoint" />
            <mxPoint x="520" y="479.74" as="targetPoint" />
          </mxGeometry>
        </mxCell>
        <mxCell id="h9ixGq4jD2DIpm4-JCJy-85" value="&lt;span&gt;Esecuzione&lt;/span&gt;&lt;div&gt;&lt;span&gt;prox. programma&lt;/span&gt;&lt;/div&gt;" style="edgeLabel;html=1;align=center;verticalAlign=middle;resizable=0;points=[];labelBackgroundColor=none;" vertex="1" connectable="0" parent="h9ixGq4jD2DIpm4-JCJy-81">
          <mxGeometry x="-0.2555" relative="1" as="geometry">
            <mxPoint x="-15" as="offset" />
          </mxGeometry>
        </mxCell>
        <mxCell id="h9ixGq4jD2DIpm4-JCJy-89" value="Restituzione&lt;div&gt;controllo&lt;/div&gt;" style="edgeLabel;html=1;align=center;verticalAlign=middle;resizable=0;points=[];labelBackgroundColor=none;" vertex="1" connectable="0" parent="1">
          <mxGeometry x="580.0024137931035" y="510" as="geometry">
            <mxPoint x="3" y="12" as="offset" />
          </mxGeometry>
        </mxCell>
        <mxCell id="h9ixGq4jD2DIpm4-JCJy-103" style="edgeStyle=orthogonalEdgeStyle;rounded=0;orthogonalLoop=1;jettySize=auto;html=1;entryX=1;entryY=0.5;entryDx=0;entryDy=0;jumpStyle=none;jumpSize=100;shadow=0;flowAnimation=0;" edge="1" parent="1" source="h9ixGq4jD2DIpm4-JCJy-97" target="h9ixGq4jD2DIpm4-JCJy-21">
          <mxGeometry relative="1" as="geometry">
            <Array as="points">
              <mxPoint x="1480" y="655" />
              <mxPoint x="1480" y="280" />
            </Array>
          </mxGeometry>
        </mxCell>
        <mxCell id="h9ixGq4jD2DIpm4-JCJy-104" value="Identificato&lt;div&gt;accesso illegale&lt;/div&gt;" style="edgeLabel;html=1;align=center;verticalAlign=middle;resizable=0;points=[];labelBackgroundColor=none;" vertex="1" connectable="0" parent="h9ixGq4jD2DIpm4-JCJy-103">
          <mxGeometry x="-0.5558" y="-2" relative="1" as="geometry">
            <mxPoint x="-1" y="-2" as="offset" />
          </mxGeometry>
        </mxCell>
        <mxCell id="h9ixGq4jD2DIpm4-JCJy-113" style="edgeStyle=orthogonalEdgeStyle;rounded=0;orthogonalLoop=1;jettySize=auto;html=1;" edge="1" parent="1" source="h9ixGq4jD2DIpm4-JCJy-97" target="h9ixGq4jD2DIpm4-JCJy-96">
          <mxGeometry relative="1" as="geometry" />
        </mxCell>
        <mxCell id="h9ixGq4jD2DIpm4-JCJy-97" value="Unità di protezione memoria" style="rounded=0;whiteSpace=wrap;html=1;fillColor=#dae8fc;strokeColor=#6c8ebf;" vertex="1" parent="1">
          <mxGeometry x="360" y="640" width="320" height="30" as="geometry" />
        </mxCell>
        <mxCell id="h9ixGq4jD2DIpm4-JCJy-99" value="" style="rounded=0;whiteSpace=wrap;html=1;fillColor=none;strokeColor=#6c8ebf;" vertex="1" parent="1">
          <mxGeometry x="520" y="400" width="910" height="200" as="geometry" />
        </mxCell>
        <mxCell id="h9ixGq4jD2DIpm4-JCJy-96" value="Unità di decodificazione&lt;div&gt;indirizzi&lt;/div&gt;" style="rounded=0;whiteSpace=wrap;html=1;fillColor=#dae8fc;strokeColor=#6c8ebf;" vertex="1" parent="1">
          <mxGeometry x="360" y="770" width="320" height="30" as="geometry" />
        </mxCell>
        <mxCell id="h9ixGq4jD2DIpm4-JCJy-106" value="" style="shape=flexArrow;endArrow=classic;html=1;rounded=0;exitX=0;exitY=1;exitDx=0;exitDy=0;entryX=0.063;entryY=0;entryDx=0;entryDy=0;entryPerimeter=0;flowAnimation=1;" edge="1" parent="1" source="h9ixGq4jD2DIpm4-JCJy-1" target="h9ixGq4jD2DIpm4-JCJy-29">
          <mxGeometry width="50" height="50" relative="1" as="geometry">
            <mxPoint x="170" y="150" as="sourcePoint" />
            <mxPoint x="105" y="404" as="targetPoint" />
          </mxGeometry>
        </mxCell>
        <mxCell id="h9ixGq4jD2DIpm4-JCJy-107" value="INPUT" style="edgeLabel;html=1;align=center;verticalAlign=middle;resizable=0;points=[];labelBackgroundColor=none;fontSize=13;fontStyle=1;rotation=-65;" vertex="1" connectable="0" parent="h9ixGq4jD2DIpm4-JCJy-106">
          <mxGeometry x="-0.446" relative="1" as="geometry">
            <mxPoint x="-30" y="45" as="offset" />
          </mxGeometry>
        </mxCell>
        <mxCell id="h9ixGq4jD2DIpm4-JCJy-111" value="" style="shape=flexArrow;endArrow=classic;html=1;rounded=0;entryX=0.199;entryY=0.989;entryDx=0;entryDy=0;entryPerimeter=0;exitX=0.12;exitY=0.004;exitDx=0;exitDy=0;exitPerimeter=0;flowAnimation=1;" edge="1" parent="1" source="h9ixGq4jD2DIpm4-JCJy-29" target="h9ixGq4jD2DIpm4-JCJy-1">
          <mxGeometry width="50" height="50" relative="1" as="geometry">
            <mxPoint x="80" y="400" as="sourcePoint" />
            <mxPoint x="230" y="140" as="targetPoint" />
          </mxGeometry>
        </mxCell>
        <mxCell id="h9ixGq4jD2DIpm4-JCJy-112" value="OUTPUT" style="edgeLabel;html=1;align=center;verticalAlign=middle;resizable=0;points=[];labelBackgroundColor=none;fontSize=13;fontStyle=1;rotation=-65;" vertex="1" connectable="0" parent="1">
          <mxGeometry x="140.00148362212389" y="260.0014889033032" as="geometry">
            <mxPoint x="-3.788574148914584" y="24.080079252759294" as="offset" />
          </mxGeometry>
        </mxCell>
        <mxCell id="h9ixGq4jD2DIpm4-JCJy-115" value="&lt;font style=&quot;font-size: 9px;&quot;&gt;Tastiera PS/2&lt;/font&gt;" style="rounded=0;whiteSpace=wrap;html=1;fillColor=#dae8fc;strokeColor=#6c8ebf;" vertex="1" parent="1">
          <mxGeometry x="250" y="280" width="50" height="30" as="geometry" />
        </mxCell>
        <mxCell id="h9ixGq4jD2DIpm4-JCJy-117" style="edgeStyle=orthogonalEdgeStyle;rounded=0;orthogonalLoop=1;jettySize=auto;html=1;entryX=0.5;entryY=0;entryDx=0;entryDy=0;" edge="1" parent="1" source="h9ixGq4jD2DIpm4-JCJy-1" target="h9ixGq4jD2DIpm4-JCJy-115">
          <mxGeometry relative="1" as="geometry" />
        </mxCell>
        <mxCell id="h9ixGq4jD2DIpm4-JCJy-118" value="philOS" style="text;html=1;align=center;verticalAlign=middle;whiteSpace=wrap;rounded=0;fontFamily=Jersey 25;fontColor=default;labelBackgroundColor=none;labelBorderColor=none;textShadow=1;fontSize=100;" vertex="1" parent="1">
          <mxGeometry x="1380" y="10" width="250" height="130" as="geometry" />
        </mxCell>
      </root>
    </mxGraphModel>
  </diagram>
</mxfile>
